<svg version="1.1" xmlns="http://www.w3.org/2000/svg" xmlns:xlink="http://www.w3.org/1999/xlink" width="279.29269" height="109.45492" viewBox="0,0,279.29269,109.45492"><g transform="translate(-100.35366,-139.6576)"><g data-paper-data="{&quot;isPaintingLayer&quot;:true}" fill-rule="nonzero" stroke-width="1" stroke-linecap="square" stroke-linejoin="miter" stroke-miterlimit="10" stroke-dasharray="" stroke-dashoffset="0" style="mix-blend-mode: normal"><path d="M124.99979,189.87531l1.08429,-49.70692l21.88542,0.4774l-0.15368,7.0452l6.95147,0.15163l-0.15164,6.95147l7.10768,0.15505l-0.47399,21.7292l-7.10768,-0.15505l-0.15334,7.02958l-6.95147,-0.15163l-0.15163,6.95147zM132.97911,182.31315l13.29371,0.28999l0.15334,-7.02958l6.95147,0.15163l0.44026,-20.1827l-6.95147,-0.15164l0.15164,-6.95147l-13.29371,-0.28999zM170.30335,190.86355l0.77897,-35.71025l7.81064,0.17038l-0.77897,35.71025zM171.21726,148.96726l0.17038,-7.81064l7.81064,0.17038l-0.17038,7.81064zM192.64409,205.35421l0.15163,-6.95147l-7.02958,-0.15334l0.16868,-7.73254l7.81064,0.17038l-0.15164,6.95147l20.32329,0.44333l0.28828,-13.21561l-21.10435,-0.46036l0.15334,-7.02958l-7.02958,-0.15334l0.32065,-14.69962l7.02958,0.15334l0.15334,-7.02958l21.88542,0.4774l-0.15334,7.02958l7.02958,0.15334l-0.77931,35.72588l-7.02958,-0.15334l-0.15164,6.95147zM194.05249,176.61246l20.32329,0.44333l0.28828,-13.21561l-20.32329,-0.44332zM231.22338,192.19244l0.77897,-35.71025l7.81064,0.17038l-0.77897,35.71025zM232.13729,150.29615l0.17038,-7.81064l7.81064,0.17038l-0.17038,7.81064zM260.06337,192.82154l0.15163,-6.95147l-6.96709,-0.15198l0.45866,-21.02625l-7.02958,-0.15334l0.16868,-7.73254l7.02958,0.15334l0.30532,-13.99667l7.73254,0.16868l-0.30532,13.99667l21.18246,0.46206l-0.16868,7.73254l-21.18246,-0.46206l-0.44163,20.24518l20.41702,0.44537l0.15334,-7.02958l7.81064,0.17038l-0.17038,7.81064l-7.0452,-0.15368l-0.15164,6.95147zM303.11556,193.76067l0.15163,-6.95147l-7.02958,-0.15334l0.47399,-21.7292l7.02958,0.15334l0.15334,-7.02958l21.80731,0.4757l-0.15334,7.02958l7.10768,0.15505l-0.45696,20.94814l7.0452,0.15368l-0.16868,7.73254l-7.81064,-0.17038l0.15164,-6.95147l-6.34224,-0.13835l-0.15164,6.95147zM304.0653,186.04517l20.24518,0.44162l0.44163,-20.24518l-20.24518,-0.44162zM346.10528,194.69843l1.08429,-49.70693l7.81064,0.17038l-1.08429,49.70692z" fill="#009cff" stroke="#0077ff"/><path d="M101.99291,248.60131l-1.12804,-49.70595l21.88499,-0.49667l0.15988,7.04506l6.95133,-0.15776l0.15776,6.95134l7.10754,-0.1613l0.49312,21.72878l-7.10754,0.1613l0.15953,7.02944l-6.95133,0.15776l0.15775,6.95134zM109.62792,240.69167l13.29345,-0.30168l-0.15953,-7.02944l6.95134,-0.15776l-0.45803,-20.1823l-6.95133,0.15776l-0.15776,-6.95133l-13.29345,0.30168zM147.29558,247.5732l-0.65088,-28.68011l7.02944,-0.15953l-0.15953,-7.02944l21.80688,-0.49489l0.15953,7.02944l7.10754,-0.1613l0.17371,7.65428l-7.88859,0.17903l-0.15776,-6.95134l-20.24479,0.45944l0.63492,27.97717zM197.30828,246.43819l-0.15776,-6.95133l-7.02944,0.15953l-0.49312,-21.72878l7.02944,-0.15953l-0.15953,-7.02944l21.80688,-0.49489l0.15953,7.02944l7.10754,-0.1613l0.17371,7.65428l-7.88859,0.17902l-0.15776,-6.95133l-20.24479,0.45945l0.14038,6.1859l14.0745,-0.31941l0.17726,7.81049l-14.0745,0.31941l0.1418,6.24839l20.24479,-0.45944l-0.1613,-7.10754l7.88859,-0.17902l0.17726,7.81049l-7.10754,0.1613l0.15953,7.02944zM242.61094,245.41008l-0.15775,-6.95133l-7.02944,0.15953l-0.49312,-21.72878l7.02944,-0.15953l-0.15953,-7.02944l21.80688,-0.49489l0.15953,7.02944l7.10754,-0.1613l0.47539,20.94773l7.04506,-0.15989l0.17548,7.73238l-7.81049,0.17726l-0.15776,-6.95133l-6.34211,0.14393l0.15776,6.95134zM243.21651,237.65997l20.24479,-0.45944l-0.45944,-20.24479l-20.24479,0.45944zM285.59981,244.43448l-0.81041,-35.70955l21.88499,-0.49667l0.15953,7.02944l6.17029,-0.14003l-0.15953,-7.02944l14.93365,-0.33891l0.15953,7.02944l6.95133,-0.15776l0.65088,28.68012l-7.73238,0.17548l-0.63493,-27.97717l-13.37155,0.30346l0.63492,27.97717l-7.73239,0.17548l-0.63492,-27.97717l-13.29345,0.30168l0.63493,27.97717zM343.34901,243.1239l-0.17548,-7.73239l28.05527,-0.6367l-0.1418,-6.24839l-21.02584,0.47717l-0.15988,-7.04506l-7.02944,0.15953l-0.17371,-7.65428l7.02944,-0.15953l-0.15953,-7.02944l28.91443,-0.65619l0.17549,7.73239l-28.13339,0.63846l0.14039,6.18591l21.02584,-0.47717l0.15953,7.02944l7.10754,-0.1613l0.17726,7.81049l-7.10754,0.1613l0.15776,6.95134z" fill="#ff0000" stroke="#dc0000"/></g></g></svg>